STARTFONT 2.1
COMMENT Copyright (C) 1990-1991 EWT Consulting
COMMENT Portions Copyright (C) 1994-1995 Cronyx Ltd.
COMMENT Changes Copyright (C) 1996 by Andrey A. Chernov, Moscow, Russia.
COMMENT Modified by Serge Vakulenko, <vak@cronyx.ru>
COMMENT This software may be used, modified, copied, distributed, and sold,
COMMENT in both source and binary form provided that the copyright
COMMENT and these terms are retained. Under no circumstances is the author
COMMENT responsible for the proper functioning of this software, nor does
COMMENT the author assume any responsibility for damages incurred with its use.
COMMENT $XFree86: xc/fonts/bdf/cyrillic/crox3co.bdf,v 3.2 1996/09/01 12:18:13 dawes Exp $
FONT -Cronyx-Courier-Medium-O-Normal--20-140-100-100-M-120-KOI8-R
SIZE 14 96 96
FONTBOUNDINGBOX 18 20 -1 -4
STARTPROPERTIES 19
DEFAULT_CHAR 32
FONT_ASCENT 16
FONT_DESCENT 4
SPACING "M"
FONTNAME_REGISTRY ""
FOUNDRY "Cronyx"
FAMILY_NAME "Courier"
WEIGHT_NAME "Medium"
SLANT "O"
SETWIDTH_NAME "Normal"
ADD_STYLE_NAME ""
AVERAGE_WIDTH 120
CHARSET_REGISTRY "KOI8"
CHARSET_ENCODING "R"
PIXEL_SIZE 20
POINT_SIZE 140
RESOLUTION_X 100
RESOLUTION_Y 100
COPYRIGHT "Copyright (C) 1990, 1991 EWT Consulting, Portions Copyright (C) 1994 Cronyx Ltd., Portions Copyright (C) 1996 by Andrey A. Chernov, Moscow, Russia."
ENDPROPERTIES
CHARS 224
STARTCHAR space
ENCODING 32
SWIDTH 600 0
DWIDTH 12 0
BBX 18 20 -1 -4
BITMAP
000000
000000
000000
000000
000000
000000
000000
000000
000000
000000
000000
000000
000000
000000
000000
000000
000000
000000
000000
000000
ENDCHAR
STARTCHAR exclam
ENCODING 33
SWIDTH 600 0
DWIDTH 12 0
BBX 18 20 -1 -4
BITMAP
000000
000000
000000
000000
000800
001000
001000
001000
002000
002000
002000
004000
000000
000000
008000
008000
000000
000000
000000
000000
ENDCHAR
STARTCHAR quotedbl
ENCODING 34
SWIDTH 600 0
DWIDTH 12 0
BBX 18 20 -1 -4
BITMAP
000000
000000
000000
000000
002200
004400
004400
004400
008800
000000
000000
000000
000000
000000
000000
000000
000000
000000
000000
000000
ENDCHAR
STARTCHAR numbersign
ENCODING 35
SWIDTH 600 0
DWIDTH 12 0
BBX 18 20 -1 -4
BITMAP
000000
000000
000000
000000
001100
002200
002200
00FF00
008800
008800
008800
011000
07F800
022000
044000
044000
000000
000000
000000
000000
ENDCHAR
STARTCHAR dollar
ENCODING 36
SWIDTH 600 0
DWIDTH 12 0
BBX 18 20 -1 -4
BITMAP
000000
000000
000000
000800
000800
007A00
008600
008200
010000
008000
007000
001000
000800
020800
061000
05E000
008000
010000
000000
000000
ENDCHAR
STARTCHAR percent
ENCODING 37
SWIDTH 600 0
DWIDTH 12 0
BBX 18 20 -1 -4
BITMAP
000000
000000
000000
000000
00E000
022100
022200
022400
039000
002000
002000
009C00
012200
022200
084400
003800
000000
000000
000000
000000
ENDCHAR
STARTCHAR ampersand
ENCODING 38
SWIDTH 600 0
DWIDTH 12 0
BBX 18 20 -1 -4
BITMAP
000000
000000
000000
000000
003C00
008400
008000
008000
008000
014000
012000
042400
041400
040800
082800
07C400
000000
000000
000000
000000
ENDCHAR
STARTCHAR quoteright
ENCODING 39
SWIDTH 600 0
DWIDTH 12 0
BBX 18 20 -1 -4
BITMAP
000000
000000
000000
000000
000800
001000
001000
001000
002000
000000
000000
000000
000000
000000
000000
000000
000000
000000
000000
000000
ENDCHAR
STARTCHAR parenleft
ENCODING 40
SWIDTH 600 0
DWIDTH 12 0
BBX 18 20 -1 -4
BITMAP
000000
000000
000000
000000
000400
001000
001000
002000
004000
004000
004000
008000
008000
008000
010000
010000
008000
010000
008000
000000
ENDCHAR
STARTCHAR parenright
ENCODING 41
SWIDTH 600 0
DWIDTH 12 0
BBX 18 20 -1 -4
BITMAP
000000
000000
000000
000000
001000
001000
001000
000800
001000
001000
001000
002000
002000
002000
004000
004000
008000
010000
020000
000000
ENDCHAR
STARTCHAR asterisk
ENCODING 42
SWIDTH 600 0
DWIDTH 12 0
BBX 18 20 -1 -4
BITMAP
000000
000000
000000
000000
000800
009200
007C00
003800
005000
008800
000000
000000
000000
000000
000000
000000
000000
000000
000000
000000
ENDCHAR
STARTCHAR plus
ENCODING 43
SWIDTH 600 0
DWIDTH 12 0
BBX 18 20 -1 -4
BITMAP
000000
000000
000000
000000
000000
000000
001000
001000
002000
002000
03FE00
004000
004000
004000
008000
000000
000000
000000
000000
000000
ENDCHAR
STARTCHAR comma
ENCODING 44
SWIDTH 600 0
DWIDTH 12 0
BBX 18 20 -1 -4
BITMAP
000000
000000
000000
000000
000000
000000
000000
000000
000000
000000
000000
000000
000000
000000
008000
008000
010000
000000
000000
000000
ENDCHAR
STARTCHAR minus
ENCODING 45
SWIDTH 600 0
DWIDTH 12 0
BBX 18 20 -1 -4
BITMAP
000000
000000
000000
000000
000000
000000
000000
000000
000000
000000
000000
07FC00
000000
000000
000000
000000
000000
000000
000000
000000
ENDCHAR
STARTCHAR period
ENCODING 46
SWIDTH 600 0
DWIDTH 12 0
BBX 18 20 -1 -4
BITMAP
000000
000000
000000
000000
000000
000000
000000
000000
000000
000000
000000
000000
000000
000000
008000
008000
000000
000000
000000
000000
ENDCHAR
STARTCHAR slash
ENCODING 47
SWIDTH 600 0
DWIDTH 12 0
BBX 18 20 -1 -4
BITMAP
000000
000000
000000
000000
000000
000080
000100
000200
000800
001000
002000
008000
010000
020000
080000
100000
000000
000000
000000
000000
ENDCHAR
STARTCHAR zero
ENCODING 48
SWIDTH 600 0
DWIDTH 12 0
BBX 18 20 -1 -4
BITMAP
000000
000000
000000
000000
001C00
004400
008200
008200
010400
010400
010400
020800
020800
020800
022000
01C000
000000
000000
000000
000000
ENDCHAR
STARTCHAR one
ENCODING 49
SWIDTH 600 0
DWIDTH 12 0
BBX 18 20 -1 -4
BITMAP
000000
000000
000000
000000
001800
00D000
001000
001000
002000
002000
002000
004000
004000
004000
008000
07F000
000000
000000
000000
000000
ENDCHAR
STARTCHAR two
ENCODING 50
SWIDTH 600 0
DWIDTH 12 0
BBX 18 20 -1 -4
BITMAP
000000
000000
000000
000000
001C00
004400
008200
000200
000400
000800
001000
004000
008000
010800
041000
07F000
000000
000000
000000
000000
ENDCHAR
STARTCHAR three
ENCODING 51
SWIDTH 600 0
DWIDTH 12 0
BBX 18 20 -1 -4
BITMAP
000000
000000
000000
000000
003C00
008400
000200
000200
000800
003000
000800
000800
000800
000800
042000
03C000
000000
000000
000000
000000
ENDCHAR
STARTCHAR four
ENCODING 52
SWIDTH 600 0
DWIDTH 12 0
BBX 18 20 -1 -4
BITMAP
000000
000000
000000
000000
000200
000C00
000C00
001400
004800
004800
008800
021000
03F800
001000
002000
00F000
000000
000000
000000
000000
ENDCHAR
STARTCHAR five
ENCODING 53
SWIDTH 600 0
DWIDTH 12 0
BBX 18 20 -1 -4
BITMAP
000000
000000
000000
000000
007E00
008000
008000
008000
01F000
010800
000400
000800
000800
000800
042000
03C000
000000
000000
000000
000000
ENDCHAR
STARTCHAR six
ENCODING 54
SWIDTH 600 0
DWIDTH 12 0
BBX 18 20 -1 -4
BITMAP
000000
000000
000000
000000
000700
003000
004000
004000
010000
017000
018800
020800
020800
020800
022000
01C000
000000
000000
000000
000000
ENDCHAR
STARTCHAR seven
ENCODING 55
SWIDTH 600 0
DWIDTH 12 0
BBX 18 20 -1 -4
BITMAP
000000
000000
000000
000000
007F00
008200
008200
000400
000800
001000
001000
004000
004000
008000
010000
010000
000000
000000
000000
000000
ENDCHAR
STARTCHAR eight
ENCODING 56
SWIDTH 600 0
DWIDTH 12 0
BBX 18 20 -1 -4
BITMAP
000000
000000
000000
000000
001C00
004400
008200
008200
008800
007000
008800
020800
020800
020800
022000
01C000
000000
000000
000000
000000
ENDCHAR
STARTCHAR nine
ENCODING 57
SWIDTH 600 0
DWIDTH 12 0
BBX 18 20 -1 -4
BITMAP
000000
000000
000000
000000
001C00
004400
008200
008200
010400
008C00
007400
000800
001000
001000
00C000
070000
000000
000000
000000
000000
ENDCHAR
STARTCHAR colon
ENCODING 58
SWIDTH 600 0
DWIDTH 12 0
BBX 18 20 -1 -4
BITMAP
000000
000000
000000
000000
000000
000000
000000
001000
002000
000000
000000
000000
000000
000000
008000
008000
000000
000000
000000
000000
ENDCHAR
STARTCHAR semicolon
ENCODING 59
SWIDTH 600 0
DWIDTH 12 0
BBX 18 20 -1 -4
BITMAP
000000
000000
000000
000000
000000
000000
000000
001000
002000
000000
000000
000000
000000
000000
008000
008000
010000
000000
000000
000000
ENDCHAR
STARTCHAR less
ENCODING 60
SWIDTH 600 0
DWIDTH 12 0
BBX 18 20 -1 -4
BITMAP
000000
000000
000000
000000
000000
000000
000400
000800
002000
004000
008000
008000
004000
002000
002000
000000
000000
000000
000000
000000
ENDCHAR
STARTCHAR equal
ENCODING 61
SWIDTH 600 0
DWIDTH 12 0
BBX 18 20 -1 -4
BITMAP
000000
000000
000000
000000
000000
000000
000000
000000
03FE00
000000
000000
000000
07FC00
000000
000000
000000
000000
000000
000000
000000
ENDCHAR
STARTCHAR greater
ENCODING 62
SWIDTH 600 0
DWIDTH 12 0
BBX 18 20 -1 -4
BITMAP
000000
000000
000000
000000
000000
000000
004000
002000
002000
001000
000800
002000
004000
008000
020000
000000
000000
000000
000000
000000
ENDCHAR
STARTCHAR question
ENCODING 63
SWIDTH 600 0
DWIDTH 12 0
BBX 18 20 -1 -4
BITMAP
000000
000000
000000
000000
003E00
008200
008200
000200
000800
001000
002000
004000
000000
000000
008000
008000
000000
000000
000000
000000
ENDCHAR
STARTCHAR at
ENCODING 64
SWIDTH 600 0
DWIDTH 12 0
BBX 18 20 -1 -4
BITMAP
000000
000000
000000
000000
003E00
008200
010100
010100
023E00
024200
024200
048400
048400
048400
08F800
080000
040000
07C000
000000
000000
ENDCHAR
STARTCHAR A
ENCODING 65
SWIDTH 600 0
DWIDTH 12 0
BBX 18 20 -1 -4
BITMAP
000000
000000
000000
000000
003800
001000
001000
002800
005000
008800
008800
020800
03F800
040400
080800
1C1C00
000000
000000
000000
000000
ENDCHAR
STARTCHAR B
ENCODING 66
SWIDTH 600 0
DWIDTH 12 0
BBX 18 20 -1 -4
BITMAP
000000
000000
000000
000000
01FE00
008200
008100
008100
010400
01FC00
010200
020200
020200
020200
040800
1FF000
000000
000000
000000
000000
ENDCHAR
STARTCHAR C
ENCODING 67
SWIDTH 600 0
DWIDTH 12 0
BBX 18 20 -1 -4
BITMAP
000000
000000
000000
000000
001F40
00C180
008080
010000
020000
020000
020000
040000
040000
020200
060C00
01F000
000000
000000
000000
000000
ENDCHAR
STARTCHAR D
ENCODING 68
SWIDTH 600 0
DWIDTH 12 0
BBX 18 20 -1 -4
BITMAP
000000
000000
000000
000000
01FE00
008300
008100
008080
010100
010100
010100
020200
020200
020400
041800
1FE000
000000
000000
000000
000000
ENDCHAR
STARTCHAR E
ENCODING 69
SWIDTH 600 0
DWIDTH 12 0
BBX 18 20 -1 -4
BITMAP
000000
000000
000000
000000
01FF80
008100
008100
008000
010800
01F800
010800
020000
020000
020400
040800
1FF800
000000
000000
000000
000000
ENDCHAR
STARTCHAR F
ENCODING 70
SWIDTH 600 0
DWIDTH 12 0
BBX 18 20 -1 -4
BITMAP
000000
000000
000000
000000
00FFC0
004080
004080
004000
008400
00FC00
008400
010000
010000
010000
020000
0FC000
000000
000000
000000
000000
ENDCHAR
STARTCHAR G
ENCODING 71
SWIDTH 600 0
DWIDTH 12 0
BBX 18 20 -1 -4
BITMAP
000000
000000
000000
000000
003E80
018300
010100
020000
040000
040000
041F00
080400
080400
040400
0C1800
03E000
000000
000000
000000
000000
ENDCHAR
STARTCHAR H
ENCODING 72
SWIDTH 600 0
DWIDTH 12 0
BBX 18 20 -1 -4
BITMAP
000000
000000
000000
000000
01C1C0
010100
010100
010100
020200
03FE00
020200
040400
040400
040400
080800
1C1C00
000000
000000
000000
000000
ENDCHAR
STARTCHAR I
ENCODING 73
SWIDTH 600 0
DWIDTH 12 0
BBX 18 20 -1 -4
BITMAP
000000
000000
000000
000000
007F00
001000
001000
001000
002000
002000
002000
004000
004000
004000
008000
07F000
000000
000000
000000
000000
ENDCHAR
STARTCHAR J
ENCODING 74
SWIDTH 600 0
DWIDTH 12 0
BBX 18 20 -1 -4
BITMAP
000000
000000
000000
000000
001F80
000400
000400
000400
000800
000800
000800
001000
001000
041000
082000
07C000
000000
000000
000000
000000
ENDCHAR
STARTCHAR K
ENCODING 75
SWIDTH 600 0
DWIDTH 12 0
BBX 18 20 -1 -4
BITMAP
000000
000000
000000
000000
01C780
010400
010800
011000
024000
028000
034000
044000
042000
041000
081000
1C0C00
000000
000000
000000
000000
ENDCHAR
STARTCHAR L
ENCODING 76
SWIDTH 600 0
DWIDTH 12 0
BBX 18 20 -1 -4
BITMAP
000000
000000
000000
000000
01F800
008000
008000
008000
010000
010000
010000
020000
020000
020400
040800
1FF800
000000
000000
000000
000000
ENDCHAR
STARTCHAR M
ENCODING 77
SWIDTH 600 0
DWIDTH 12 0
BBX 18 20 -1 -4
BITMAP
000000
000000
000000
000000
0180C0
018300
018300
014500
028A00
025200
025200
044400
044400
040400
080800
1C1C00
000000
000000
000000
000000
ENDCHAR
STARTCHAR N
ENCODING 78
SWIDTH 600 0
DWIDTH 12 0
BBX 18 20 -1 -4
BITMAP
000000
000000
000000
000000
0183C0
018100
018100
014100
024200
022200
022200
042400
041400
040C00
081800
1E0800
000000
000000
000000
000000
ENDCHAR
STARTCHAR O
ENCODING 79
SWIDTH 600 0
DWIDTH 12 0
BBX 18 20 -1 -4
BITMAP
000000
000000
000000
000000
003E00
018300
010100
020080
040100
040100
040100
080200
080200
040400
0C1800
03E000
000000
000000
000000
000000
ENDCHAR
STARTCHAR P
ENCODING 80
SWIDTH 600 0
DWIDTH 12 0
BBX 18 20 -1 -4
BITMAP
000000
000000
000000
000000
01FC00
008200
008100
008100
010200
010400
01F800
020000
020000
020000
040000
1F8000
000000
000000
000000
000000
ENDCHAR
STARTCHAR Q
ENCODING 81
SWIDTH 600 0
DWIDTH 12 0
BBX 18 20 -1 -4
BITMAP
000000
000000
000000
000000
003E00
018300
010100
020080
040100
040100
040100
080200
080200
040400
0C1800
03E000
020000
0E2000
11C000
000000
ENDCHAR
STARTCHAR R
ENCODING 82
SWIDTH 600 0
DWIDTH 12 0
BBX 18 20 -1 -4
BITMAP
000000
000000
000000
000000
01FE00
008200
008100
008100
010200
010400
01F800
022000
021000
020800
040800
1F0400
000000
000000
000000
000000
ENDCHAR
STARTCHAR S
ENCODING 83
SWIDTH 600 0
DWIDTH 12 0
BBX 18 20 -1 -4
BITMAP
000000
000000
000000
000000
003E80
008300
010100
010000
010000
00E000
001800
000800
000400
040400
0C1000
0BE000
000000
000000
000000
000000
ENDCHAR
STARTCHAR T
ENCODING 84
SWIDTH 600 0
DWIDTH 12 0
BBX 18 20 -1 -4
BITMAP
000000
000000
000000
000000
01FFC0
021080
021080
001000
002000
002000
002000
004000
004000
004000
008000
03E000
000000
000000
000000
000000
ENDCHAR
STARTCHAR U
ENCODING 85
SWIDTH 600 0
DWIDTH 12 0
BBX 18 20 -1 -4
BITMAP
000000
000000
000000
000000
01C1C0
010100
010100
010100
020200
020200
020200
040400
040400
040400
041000
03E000
000000
000000
000000
000000
ENDCHAR
STARTCHAR V
ENCODING 86
SWIDTH 600 0
DWIDTH 12 0
BBX 18 20 -1 -4
BITMAP
000000
000000
000000
000000
01C1C0
010100
010100
008200
010400
008800
008800
011000
00A000
00A000
008000
008000
000000
000000
000000
000000
ENDCHAR
STARTCHAR W
ENCODING 87
SWIDTH 600 0
DWIDTH 12 0
BBX 18 20 -1 -4
BITMAP
000000
000000
000000
000000
0180C0
020080
020080
021080
042100
025200
025200
051400
051400
020800
041000
041000
000000
000000
000000
000000
ENDCHAR
STARTCHAR X
ENCODING 88
SWIDTH 600 0
DWIDTH 12 0
BBX 18 20 -1 -4
BITMAP
000000
000000
000000
000000
01E3C0
010100
008200
004400
005000
002000
002000
00A000
011000
020800
080800
1E3C00
000000
000000
000000
000000
ENDCHAR
STARTCHAR Y
ENCODING 89
SWIDTH 600 0
DWIDTH 12 0
BBX 18 20 -1 -4
BITMAP
000000
000000
000000
000000
01C1C0
010100
010100
008200
008800
005000
002000
004000
004000
004000
008000
03E000
000000
000000
000000
000000
ENDCHAR
STARTCHAR Z
ENCODING 90
SWIDTH 600 0
DWIDTH 12 0
BBX 18 20 -1 -4
BITMAP
000000
000000
000000
000000
00FF80
010100
010200
000400
001000
002000
002000
008000
010000
020400
080800
0FF800
000000
000000
000000
000000
ENDCHAR
STARTCHAR bracketleft
ENCODING 91
SWIDTH 600 0
DWIDTH 12 0
BBX 18 20 -1 -4
BITMAP
000000
000000
000000
000000
001E00
002000
002000
002000
004000
004000
004000
008000
008000
008000
010000
010000
010000
020000
03C000
000000
ENDCHAR
STARTCHAR backslash
ENCODING 92
SWIDTH 600 0
DWIDTH 12 0
BBX 18 20 -1 -4
BITMAP
000000
000000
000000
000000
000000
020000
010000
008000
008000
004000
002000
002000
001000
000800
000800
000400
000000
000000
000000
000000
ENDCHAR
STARTCHAR bracketright
ENCODING 93
SWIDTH 600 0
DWIDTH 12 0
BBX 18 20 -1 -4
BITMAP
000000
000000
000000
000000
003C00
000800
000800
000800
001000
001000
001000
002000
002000
002000
004000
004000
004000
008000
078000
000000
ENDCHAR
STARTCHAR asciicircum
ENCODING 94
SWIDTH 600 0
DWIDTH 12 0
BBX 18 20 -1 -4
BITMAP
000000
000000
000000
000800
001400
004400
000000
000000
000000
000000
000000
000000
000000
000000
000000
000000
000000
000000
000000
000000
ENDCHAR
STARTCHAR underscore
ENCODING 95
SWIDTH 600 0
DWIDTH 12 0
BBX 18 20 -1 -4
BITMAP
000000
000000
000000
000000
000000
000000
000000
000000
000000
000000
000000
000000
000000
000000
000000
000000
000000
7FF800
000000
000000
ENDCHAR
STARTCHAR quoteleft
ENCODING 96
SWIDTH 600 0
DWIDTH 12 0
BBX 18 20 -1 -4
BITMAP
000000
000000
000000
001000
000800
000800
000000
000000
000000
000000
000000
000000
000000
000000
000000
000000
000000
000000
000000
000000
ENDCHAR
STARTCHAR a
ENCODING 97
SWIDTH 600 0
DWIDTH 12 0
BBX 18 20 -1 -4
BITMAP
000000
000000
000000
000000
000000
000000
000000
007C00
010400
000400
007C00
030800
040800
040800
081000
07E800
000000
000000
000000
000000
ENDCHAR
STARTCHAR b
ENCODING 98
SWIDTH 600 0
DWIDTH 12 0
BBX 18 20 -1 -4
BITMAP
000000
000000
000000
00C000
004000
008000
008000
00BC00
018400
010200
010200
020400
020400
020400
061000
0DE000
000000
000000
000000
000000
ENDCHAR
STARTCHAR c
ENCODING 99
SWIDTH 600 0
DWIDTH 12 0
BBX 18 20 -1 -4
BITMAP
000000
000000
000000
000000
000000
000000
000000
003D00
008600
010200
010000
020000
020000
020000
020800
01F000
000000
000000
000000
000000
ENDCHAR
STARTCHAR d
ENCODING 100
SWIDTH 600 0
DWIDTH 12 0
BBX 18 20 -1 -4
BITMAP
000000
000000
000000
000300
000100
000200
000200
007A00
010C00
020400
020400
040800
040800
040800
043000
03D800
000000
000000
000000
000000
ENDCHAR
STARTCHAR e
ENCODING 101
SWIDTH 600 0
DWIDTH 12 0
BBX 18 20 -1 -4
BITMAP
000000
000000
000000
000000
000000
000000
000000
007C00
010400
020200
020200
07FC00
040000
040400
041000
03E000
000000
000000
000000
000000
ENDCHAR
STARTCHAR f
ENCODING 102
SWIDTH 600 0
DWIDTH 12 0
BBX 18 20 -1 -4
BITMAP
000000
000000
000000
000700
000800
001000
001000
007E00
002000
002000
002000
004000
004000
004000
008000
03F000
000000
000000
000000
000000
ENDCHAR
STARTCHAR g
ENCODING 103
SWIDTH 600 0
DWIDTH 12 0
BBX 18 20 -1 -4
BITMAP
000000
000000
000000
000000
000000
000000
000000
007B00
010C00
020400
020400
040800
040800
040800
043000
03D000
001000
002000
004000
0F8000
ENDCHAR
STARTCHAR h
ENCODING 104
SWIDTH 600 0
DWIDTH 12 0
BBX 18 20 -1 -4
BITMAP
000000
000000
000000
00C000
004000
008000
008000
00BC00
018400
010400
010400
020800
020800
020800
041000
0E3800
000000
000000
000000
000000
ENDCHAR
STARTCHAR i
ENCODING 105
SWIDTH 600 0
DWIDTH 12 0
BBX 18 20 -1 -4
BITMAP
000000
000000
000000
000800
000800
000000
000000
007000
002000
002000
002000
004000
004000
004000
008000
07F000
000000
000000
000000
000000
ENDCHAR
STARTCHAR j
ENCODING 106
SWIDTH 600 0
DWIDTH 12 0
BBX 18 20 -1 -4
BITMAP
000000
000000
000000
000400
000400
000000
000000
00F800
001000
001000
001000
002000
002000
002000
004000
004000
004000
008000
010000
0E0000
ENDCHAR
STARTCHAR k
ENCODING 107
SWIDTH 600 0
DWIDTH 12 0
BBX 18 20 -1 -4
BITMAP
000000
000000
000000
00C000
004000
008000
008000
008F00
010800
011000
012000
02C000
032000
021000
041000
0C0C00
000000
000000
000000
000000
ENDCHAR
STARTCHAR l
ENCODING 108
SWIDTH 600 0
DWIDTH 12 0
BBX 18 20 -1 -4
BITMAP
000000
000000
000000
003800
000800
001000
001000
001000
002000
002000
002000
004000
004000
004000
008000
07F000
000000
000000
000000
000000
ENDCHAR
STARTCHAR m
ENCODING 109
SWIDTH 600 0
DWIDTH 12 0
BBX 18 20 -1 -4
BITMAP
000000
000000
000000
000000
000000
000000
000000
036600
033200
022200
022200
044400
044400
044400
088800
1CCC00
000000
000000
000000
000000
ENDCHAR
STARTCHAR n
ENCODING 110
SWIDTH 600 0
DWIDTH 12 0
BBX 18 20 -1 -4
BITMAP
000000
000000
000000
000000
000000
000000
000000
01BC00
018400
010400
010400
020800
020800
020800
041000
0E3800
000000
000000
000000
000000
ENDCHAR
STARTCHAR o
ENCODING 111
SWIDTH 600 0
DWIDTH 12 0
BBX 18 20 -1 -4
BITMAP
000000
000000
000000
000000
000000
000000
000000
007C00
010400
020200
020200
040400
040400
040400
041000
03E000
000000
000000
000000
000000
ENDCHAR
STARTCHAR p
ENCODING 112
SWIDTH 600 0
DWIDTH 12 0
BBX 18 20 -1 -4
BITMAP
000000
000000
000000
000000
000000
000000
000000
01BC00
018400
010200
010200
020400
020400
020400
061000
05E000
040000
080000
080000
1E0000
ENDCHAR
STARTCHAR q
ENCODING 113
SWIDTH 600 0
DWIDTH 12 0
BBX 18 20 -1 -4
BITMAP
000000
000000
000000
000000
000000
000000
000000
007B00
010C00
020400
020400
040800
040800
040800
043000
03D000
001000
002000
002000
00F000
ENDCHAR
STARTCHAR r
ENCODING 114
SWIDTH 600 0
DWIDTH 12 0
BBX 18 20 -1 -4
BITMAP
000000
000000
000000
000000
000000
000000
000000
01DE00
00C200
008000
008000
010000
010000
010000
020000
0FC000
000000
000000
000000
000000
ENDCHAR
STARTCHAR s
ENCODING 115
SWIDTH 600 0
DWIDTH 12 0
BBX 18 20 -1 -4
BITMAP
000000
000000
000000
000000
000000
000000
000000
007D00
010600
020200
010000
01F000
000800
040400
0C1000
0BE000
000000
000000
000000
000000
ENDCHAR
STARTCHAR t
ENCODING 116
SWIDTH 600 0
DWIDTH 12 0
BBX 18 20 -1 -4
BITMAP
000000
000000
000000
000000
001000
002000
002000
00FE00
004000
004000
004000
008000
008000
008800
011000
00E000
000000
000000
000000
000000
ENDCHAR
STARTCHAR u
ENCODING 117
SWIDTH 600 0
DWIDTH 12 0
BBX 18 20 -1 -4
BITMAP
000000
000000
000000
000000
000000
000000
000000
018600
010400
010400
010400
020800
020800
020800
043000
03D800
000000
000000
000000
000000
ENDCHAR
STARTCHAR v
ENCODING 118
SWIDTH 600 0
DWIDTH 12 0
BBX 18 20 -1 -4
BITMAP
000000
000000
000000
000000
000000
000000
000000
038380
020200
010400
010400
011000
011000
00A000
014000
008000
000000
000000
000000
000000
ENDCHAR
STARTCHAR w
ENCODING 119
SWIDTH 600 0
DWIDTH 12 0
BBX 18 20 -1 -4
BITMAP
000000
000000
000000
000000
000000
000000
000000
038380
020200
022200
022200
02A800
02A800
011000
022000
022000
000000
000000
000000
000000
ENDCHAR
STARTCHAR x
ENCODING 120
SWIDTH 600 0
DWIDTH 12 0
BBX 18 20 -1 -4
BITMAP
000000
000000
000000
000000
000000
000000
000000
03C780
010400
008800
005000
004000
00A000
011000
041000
1E3C00
000000
000000
000000
000000
ENDCHAR
STARTCHAR y
ENCODING 121
SWIDTH 600 0
DWIDTH 12 0
BBX 18 20 -1 -4
BITMAP
000000
000000
000000
000000
000000
000000
000000
038380
020200
010400
010400
011000
011000
00A000
014000
008000
008000
020000
020000
0F0000
ENDCHAR
STARTCHAR z
ENCODING 122
SWIDTH 600 0
DWIDTH 12 0
BBX 18 20 -1 -4
BITMAP
000000
000000
000000
000000
000000
000000
000000
01FF00
020400
020800
001000
004000
008000
010400
040800
0FF800
000000
000000
000000
000000
ENDCHAR
STARTCHAR braceleft
ENCODING 123
SWIDTH 600 0
DWIDTH 12 0
BBX 18 20 -1 -4
BITMAP
000000
000000
000000
000000
000600
001000
001000
001000
002000
002000
002000
018000
004000
004000
008000
008000
008000
010000
00C000
000000
ENDCHAR
STARTCHAR bar
ENCODING 124
SWIDTH 600 0
DWIDTH 12 0
BBX 18 20 -1 -4
BITMAP
000000
000000
000000
000000
000800
001000
001000
001000
002000
002000
002000
004000
004000
004000
008000
008000
008000
010000
010000
010000
ENDCHAR
STARTCHAR braceright
ENCODING 125
SWIDTH 600 0
DWIDTH 12 0
BBX 18 20 -1 -4
BITMAP
000000
000000
000000
000000
003000
001000
001000
001000
002000
002000
002000
003000
004000
004000
008000
008000
008000
010000
060000
000000
ENDCHAR
STARTCHAR asciitilde
ENCODING 126
SWIDTH 600 0
DWIDTH 12 0
BBX 18 20 -1 -4
BITMAP
000000
000000
000000
007080
008880
010E00
000000
000000
000000
000000
000000
000000
000000
000000
000000
000000
000000
000000
000000
000000
ENDCHAR
STARTCHAR C177
ENCODING -1
SWIDTH 600 0
DWIDTH 12 0
BBX 18 20 -1 -4
BITMAP
000000
000000
000000
000000
003E00
007C00
007C00
007C00
00F800
00F800
00F800
01F000
01F000
01F000
03E000
03E000
000000
000000
000000
000000
ENDCHAR
STARTCHAR C200
ENCODING -1
SWIDTH 600 0
DWIDTH 12 0
BBX 18 20 -1 -4
BITMAP
000000
000000
000000
000000
003E00
007C00
007C00
007C00
00F800
00F800
00F800
01F000
01F000
01F000
03E000
03E000
000000
000000
000000
000000
ENDCHAR
STARTCHAR C201
ENCODING -1
SWIDTH 600 0
DWIDTH 12 0
BBX 18 20 -1 -4
BITMAP
000000
000000
000000
000000
003E00
007C00
007C00
007C00
00F800
00F800
00F800
01F000
01F000
01F000
03E000
03E000
000000
000000
000000
000000
ENDCHAR
STARTCHAR C202
ENCODING -1
SWIDTH 600 0
DWIDTH 12 0
BBX 18 20 -1 -4
BITMAP
000000
000000
000000
000000
003E00
007C00
007C00
007C00
00F800
00F800
00F800
01F000
01F000
01F000
03E000
03E000
000000
000000
000000
000000
ENDCHAR
STARTCHAR C203
ENCODING -1
SWIDTH 600 0
DWIDTH 12 0
BBX 18 20 -1 -4
BITMAP
000000
000000
000000
000000
003E00
007C00
007C00
007C00
00F800
00F800
00F800
01F000
01F000
01F000
03E000
03E000
000000
000000
000000
000000
ENDCHAR
STARTCHAR C204
ENCODING -1
SWIDTH 600 0
DWIDTH 12 0
BBX 18 20 -1 -4
BITMAP
000000
000000
000000
000000
003E00
007C00
007C00
007C00
00F800
00F800
00F800
01F000
01F000
01F000
03E000
03E000
000000
000000
000000
000000
ENDCHAR
STARTCHAR C205
ENCODING -1
SWIDTH 600 0
DWIDTH 12 0
BBX 18 20 -1 -4
BITMAP
000000
000000
000000
000000
003E00
007C00
007C00
007C00
00F800
00F800
00F800
01F000
01F000
01F000
03E000
03E000
000000
000000
000000
000000
ENDCHAR
STARTCHAR C206
ENCODING -1
SWIDTH 600 0
DWIDTH 12 0
BBX 18 20 -1 -4
BITMAP
000000
000000
000000
000000
003E00
007C00
007C00
007C00
00F800
00F800
00F800
01F000
01F000
01F000
03E000
03E000
000000
000000
000000
000000
ENDCHAR
STARTCHAR C207
ENCODING -1
SWIDTH 600 0
DWIDTH 12 0
BBX 18 20 -1 -4
BITMAP
000000
000000
000000
000000
003E00
007C00
007C00
007C00
00F800
00F800
00F800
01F000
01F000
01F000
03E000
03E000
000000
000000
000000
000000
ENDCHAR
STARTCHAR C210
ENCODING -1
SWIDTH 600 0
DWIDTH 12 0
BBX 18 20 -1 -4
BITMAP
000000
000000
000000
000000
003E00
007C00
007C00
007C00
00F800
00F800
00F800
01F000
01F000
01F000
03E000
03E000
000000
000000
000000
000000
ENDCHAR
STARTCHAR C211
ENCODING -1
SWIDTH 600 0
DWIDTH 12 0
BBX 18 20 -1 -4
BITMAP
000000
000000
000000
000000
003E00
007C00
007C00
007C00
00F800
00F800
00F800
01F000
01F000
01F000
03E000
03E000
000000
000000
000000
000000
ENDCHAR
STARTCHAR C212
ENCODING -1
SWIDTH 600 0
DWIDTH 12 0
BBX 18 20 -1 -4
BITMAP
000000
000000
000000
000000
003E00
007C00
007C00
007C00
00F800
00F800
00F800
01F000
01F000
01F000
03E000
03E000
000000
000000
000000
000000
ENDCHAR
STARTCHAR C213
ENCODING -1
SWIDTH 600 0
DWIDTH 12 0
BBX 18 20 -1 -4
BITMAP
000000
000000
000000
000000
003E00
007C00
007C00
007C00
00F800
00F800
00F800
01F000
01F000
01F000
03E000
03E000
000000
000000
000000
000000
ENDCHAR
STARTCHAR C214
ENCODING -1
SWIDTH 600 0
DWIDTH 12 0
BBX 18 20 -1 -4
BITMAP
000000
000000
000000
000000
003E00
007C00
007C00
007C00
00F800
00F800
00F800
01F000
01F000
01F000
03E000
03E000
000000
000000
000000
000000
ENDCHAR
STARTCHAR C215
ENCODING -1
SWIDTH 600 0
DWIDTH 12 0
BBX 18 20 -1 -4
BITMAP
000000
000000
000000
000000
003E00
007C00
007C00
007C00
00F800
00F800
00F800
01F000
01F000
01F000
03E000
03E000
000000
000000
000000
000000
ENDCHAR
STARTCHAR C216
ENCODING -1
SWIDTH 600 0
DWIDTH 12 0
BBX 18 20 -1 -4
BITMAP
000000
000000
000000
000000
003E00
007C00
007C00
007C00
00F800
00F800
00F800
01F000
01F000
01F000
03E000
03E000
000000
000000
000000
000000
ENDCHAR
STARTCHAR C217
ENCODING -1
SWIDTH 600 0
DWIDTH 12 0
BBX 18 20 -1 -4
BITMAP
000000
000000
000000
000000
003E00
007C00
007C00
007C00
00F800
00F800
00F800
01F000
01F000
01F000
03E000
03E000
000000
000000
000000
000000
ENDCHAR
STARTCHAR C220
ENCODING -1
SWIDTH 600 0
DWIDTH 12 0
BBX 18 20 -1 -4
BITMAP
000000
000000
000000
000000
003E00
007C00
007C00
007C00
00F800
00F800
00F800
01F000
01F000
01F000
03E000
03E000
000000
000000
000000
000000
ENDCHAR
STARTCHAR C221
ENCODING -1
SWIDTH 600 0
DWIDTH 12 0
BBX 18 20 -1 -4
BITMAP
000000
000000
000000
000000
000400
001000
001000
000000
000000
000000
000000
000000
000000
000000
000000
000000
000000
000000
000000
000000
ENDCHAR
STARTCHAR C222
ENCODING -1
SWIDTH 600 0
DWIDTH 12 0
BBX 18 20 -1 -4
BITMAP
000000
000000
000000
000000
000800
001000
002000
000000
000000
000000
000000
000000
000000
000000
000000
000000
000000
000000
000000
000000
ENDCHAR
STARTCHAR C223
ENCODING -1
SWIDTH 600 0
DWIDTH 12 0
BBX 18 20 -1 -4
BITMAP
000000
000000
000000
000000
003E00
007C00
007C00
007C00
00F800
00F800
00F800
01F000
01F000
01F000
03E000
03E000
000000
000000
000000
000000
ENDCHAR
STARTCHAR C224
ENCODING -1
SWIDTH 600 0
DWIDTH 12 0
BBX 18 20 -1 -4
BITMAP
000000
000000
000000
000000
003E00
007C00
007C00
007C00
00F800
00F800
00F800
01F000
01F000
01F000
03E000
03E000
000000
000000
000000
000000
ENDCHAR
STARTCHAR C225
ENCODING -1
SWIDTH 600 0
DWIDTH 12 0
BBX 18 20 -1 -4
BITMAP
000000
000000
000000
000000
003E00
007C00
007C00
007C00
00F800
00F800
00F800
01F000
01F000
01F000
03E000
03E000
000000
000000
000000
000000
ENDCHAR
STARTCHAR C226
ENCODING -1
SWIDTH 600 0
DWIDTH 12 0
BBX 18 20 -1 -4
BITMAP
000000
000000
000000
000000
003E00
007C00
007C00
007C00
00F800
00F800
00F800
01F000
01F000
01F000
03E000
03E000
000000
000000
000000
000000
ENDCHAR
STARTCHAR C227
ENCODING -1
SWIDTH 600 0
DWIDTH 12 0
BBX 18 20 -1 -4
BITMAP
000000
000000
000000
000000
003E00
007C00
007C00
007C00
00F800
00F800
00F800
01F000
01F000
01F000
03E000
03E000
000000
000000
000000
000000
ENDCHAR
STARTCHAR C230
ENCODING -1
SWIDTH 600 0
DWIDTH 12 0
BBX 18 20 -1 -4
BITMAP
000000
000000
000000
000000
003E00
007C00
007C00
007C00
00F800
00F800
00F800
01F000
01F000
01F000
03E000
03E000
000000
000000
000000
000000
ENDCHAR
STARTCHAR C231
ENCODING -1
SWIDTH 600 0
DWIDTH 12 0
BBX 18 20 -1 -4
BITMAP
000000
000000
000000
000000
003E00
007C00
007C00
007C00
00F800
00F800
00F800
01F000
01F000
01F000
03E000
03E000
000000
000000
000000
000000
ENDCHAR
STARTCHAR C232
ENCODING -1
SWIDTH 600 0
DWIDTH 12 0
BBX 18 20 -1 -4
BITMAP
000000
000000
000000
000000
003E00
007C00
007C00
007C00
00F800
00F800
00F800
01F000
01F000
01F000
03E000
03E000
000000
000000
000000
000000
ENDCHAR
STARTCHAR C233
ENCODING -1
SWIDTH 600 0
DWIDTH 12 0
BBX 18 20 -1 -4
BITMAP
000000
000000
000000
000000
003E00
007C00
007C00
007C00
00F800
00F800
00F800
01F000
01F000
01F000
03E000
03E000
000000
000000
000000
000000
ENDCHAR
STARTCHAR C234
ENCODING 176
SWIDTH 600 0
DWIDTH 12 0
BBX 18 20 -1 -4
BITMAP
000000
000000
000000
000000
003E00
007C00
007C00
007C00
00F800
00F800
00F800
01F000
01F000
01F000
03E000
03E000
000000
000000
000000
000000
ENDCHAR
STARTCHAR C235
ENCODING 178
SWIDTH 600 0
DWIDTH 12 0
BBX 18 20 -1 -4
BITMAP
000000
000000
000000
000000
003E00
007C00
007C00
007C00
00F800
00F800
00F800
01F000
01F000
01F000
03E000
03E000
000000
000000
000000
000000
ENDCHAR
STARTCHAR C236
ENCODING -1
SWIDTH 600 0
DWIDTH 12 0
BBX 18 20 -1 -4
BITMAP
000000
000000
000000
000000
003E00
007C00
007C00
007C00
00F800
00F800
00F800
01F000
01F000
01F000
03E000
03E000
000000
000000
000000
000000
ENDCHAR
STARTCHAR C237
ENCODING -1
SWIDTH 600 0
DWIDTH 12 0
BBX 18 20 -1 -4
BITMAP
000000
000000
000000
000000
003E00
007C00
007C00
007C00
00F800
00F800
00F800
01F000
01F000
01F000
03E000
03E000
000000
000000
000000
000000
ENDCHAR
STARTCHAR C240
ENCODING 160
SWIDTH 600 0
DWIDTH 12 0
BBX 18 20 -1 -4
BITMAP
000000
000000
000000
000000
000000
000000
000000
000000
000000
000000
000000
000000
000000
000000
000000
000000
000000
000000
000000
000000
ENDCHAR
STARTCHAR exclamdown
ENCODING 161
SWIDTH 600 0
DWIDTH 12 0
BBX 18 20 -1 -4
BITMAP
000000
000000
00C300
000000
01FF80
008100
008100
008000
010800
01F800
010800
020000
020000
020400
040800
1FF800
000000
000000
000000
000000
ENDCHAR
STARTCHAR cent
ENCODING 162
SWIDTH 600 0
DWIDTH 12 0
BBX 18 20 -1 -4
BITMAP
000000
000000
000000
000000
000800
001000
007A00
008600
020400
020000
020000
040000
040000
020800
03E000
008000
008000
000000
000000
000000
ENDCHAR
STARTCHAR sterling
ENCODING 163
SWIDTH 600 0
DWIDTH 12 0
BBX 18 20 -1 -4
BITMAP
000000
000000
000000
000000
003C00
008400
008000
008000
008000
01F000
008000
010000
010000
010000
040000
07F000
000000
000000
000000
000000
ENDCHAR
STARTCHAR currency
ENCODING 164
SWIDTH 600 0
DWIDTH 12 0
BBX 18 20 -1 -4
BITMAP
000000
000000
000000
000000
000000
000000
008200
007C00
010400
010400
010400
020800
01F000
020800
000000
000000
000000
000000
000000
000000
ENDCHAR
STARTCHAR yen
ENCODING 165
SWIDTH 600 0
DWIDTH 12 0
BBX 18 20 -1 -4
BITMAP
000000
000000
000000
000000
01C1C0
010100
010100
038380
008800
005000
07FF00
004000
004000
004000
008000
03E000
000000
000000
000000
000000
ENDCHAR
STARTCHAR brokenbar
ENCODING 166
SWIDTH 600 0
DWIDTH 12 0
BBX 18 20 -1 -4
BITMAP
000000
000000
000000
000000
000800
001000
001000
001000
002000
002000
002000
000000
000000
004000
008000
008000
008000
010000
010000
010000
ENDCHAR
STARTCHAR section
ENCODING 167
SWIDTH 600 0
DWIDTH 12 0
BBX 18 20 -1 -4
BITMAP
000000
000000
000000
000000
003F00
008200
008200
004000
014000
012000
011000
011000
008800
004800
005000
002000
041000
082000
0FC000
000000
ENDCHAR
STARTCHAR dieresis
ENCODING 168
SWIDTH 600 0
DWIDTH 12 0
BBX 18 20 -1 -4
BITMAP
000000
000000
000000
002200
002200
000000
000000
000000
000000
000000
000000
000000
000000
000000
000000
000000
000000
000000
000000
000000
ENDCHAR
STARTCHAR copyright
ENCODING 191
SWIDTH 600 0
DWIDTH 12 0
BBX 18 20 -1 -4
BITMAP
000000
000000
000000
000000
007F00
010100
020080
023C80
048500
048100
048100
090200
090A00
08F200
100400
080800
07F000
000000
000000
000000
ENDCHAR
STARTCHAR ordfeminine
ENCODING 170
SWIDTH 600 0
DWIDTH 12 0
BBX 18 20 -1 -4
BITMAP
000000
000000
000000
003E00
000100
007E00
008200
007E00
000000
01FC00
000000
000000
000000
000000
000000
000000
000000
000000
000000
000000
ENDCHAR
STARTCHAR guillemotleft
ENCODING 171
SWIDTH 600 0
DWIDTH 12 0
BBX 18 20 -1 -4
BITMAP
000000
000000
000000
000000
000000
000000
000000
000000
000000
000000
004400
011000
022000
011000
011000
000000
000000
000000
000000
000000
ENDCHAR
STARTCHAR logicalnot
ENCODING 172
SWIDTH 600 0
DWIDTH 12 0
BBX 18 20 -1 -4
BITMAP
000000
000000
000000
000000
000000
000000
000000
000000
000000
000000
01FC00
000800
000800
000000
000000
000000
000000
000000
000000
000000
ENDCHAR
STARTCHAR hyphen
ENCODING 173
SWIDTH 600 0
DWIDTH 12 0
BBX 18 20 -1 -4
BITMAP
000000
000000
000000
000000
000000
000000
000000
000000
000000
000000
000000
07FC00
000000
000000
000000
000000
000000
000000
000000
000000
ENDCHAR
STARTCHAR registered
ENCODING 174
SWIDTH 600 0
DWIDTH 12 0
BBX 18 20 -1 -4
BITMAP
000000
000000
000000
000000
007F00
010100
020080
027880
048900
048900
048900
09E200
092200
091200
100400
080800
07F000
000000
000000
000000
ENDCHAR
STARTCHAR macron
ENCODING 175
SWIDTH 600 0
DWIDTH 12 0
BBX 18 20 -1 -4
BITMAP
000000
000000
03FFC0
000000
000000
000000
000000
000000
000000
000000
000000
000000
000000
000000
000000
000000
000000
000000
000000
000000
ENDCHAR
STARTCHAR degree
ENCODING 156
SWIDTH 600 0
DWIDTH 12 0
BBX 18 20 -1 -4
BITMAP
000000
000000
000000
001C00
002200
004400
004400
003800
000000
000000
000000
000000
000000
000000
000000
000000
000000
000000
000000
000000
ENDCHAR
STARTCHAR plusminus
ENCODING 177
SWIDTH 600 0
DWIDTH 12 0
BBX 18 20 -1 -4
BITMAP
000000
000000
000000
000000
000000
000000
000000
001000
002000
002000
01FC00
004000
004000
004000
000000
07F000
000000
000000
000000
000000
ENDCHAR
STARTCHAR twosuperior
ENCODING 157
SWIDTH 600 0
DWIDTH 12 0
BBX 18 20 -1 -4
BITMAP
000000
000000
000000
001C00
002200
000400
003800
004000
00F800
000000
000000
000000
000000
000000
000000
000000
000000
000000
000000
000000
ENDCHAR
STARTCHAR threesuperior
ENCODING 179
SWIDTH 600 0
DWIDTH 12 0
BBX 18 20 -1 -4
BITMAP
000000
000000
000000
001C00
002200
001800
000400
004400
007000
000000
000000
000000
000000
000000
000000
000000
000000
000000
000000
000000
ENDCHAR
STARTCHAR acute
ENCODING 180
SWIDTH 600 0
DWIDTH 12 0
BBX 18 20 -1 -4
BITMAP
000000
000000
000000
000400
000800
002000
000000
000000
000000
000000
000000
000000
000000
000000
000000
000000
000000
000000
000000
000000
ENDCHAR
STARTCHAR mu
ENCODING 181
SWIDTH 600 0
DWIDTH 12 0
BBX 18 20 -1 -4
BITMAP
000000
000000
000000
000000
000000
000000
000000
008200
010400
010400
010400
020800
020800
020800
063000
05C800
040000
080000
080000
000000
ENDCHAR
STARTCHAR paragraph
ENCODING 182
SWIDTH 600 0
DWIDTH 12 0
BBX 18 20 -1 -4
BITMAP
000000
000000
000000
000000
001F80
00F400
00F400
01F400
03E800
01E800
01E800
00D000
005000
005000
00A000
00A000
00A000
077000
000000
000000
ENDCHAR
STARTCHAR periodcentered
ENCODING 183
SWIDTH 600 0
DWIDTH 12 0
BBX 18 20 -1 -4
BITMAP
000000
000000
000000
000000
000000
000000
000000
000000
000000
002000
002000
000000
000000
000000
000000
000000
000000
000000
000000
000000
ENDCHAR
STARTCHAR cedilla
ENCODING 184
SWIDTH 600 0
DWIDTH 12 0
BBX 18 20 -1 -4
BITMAP
000000
000000
000000
000000
000000
000000
000000
000000
000000
000000
000000
000000
000000
000000
000000
000000
008000
008000
008000
030000
ENDCHAR
STARTCHAR onesuperior
ENCODING 185
SWIDTH 600 0
DWIDTH 12 0
BBX 18 20 -1 -4
BITMAP
000000
000000
000000
000800
003800
001000
001000
001000
00F800
000000
000000
000000
000000
000000
000000
000000
000000
000000
000000
000000
ENDCHAR
STARTCHAR ordmasculine
ENCODING 186
SWIDTH 600 0
DWIDTH 12 0
BBX 18 20 -1 -4
BITMAP
000000
000000
000000
003E00
004100
008200
008200
007C00
000000
01FC00
000000
000000
000000
000000
000000
000000
000000
000000
000000
000000
ENDCHAR
STARTCHAR guillemotright
ENCODING 187
SWIDTH 600 0
DWIDTH 12 0
BBX 18 20 -1 -4
BITMAP
000000
000000
000000
000000
000000
000000
000000
000000
000000
000000
011000
011000
008800
011000
044000
000000
000000
000000
000000
000000
ENDCHAR
STARTCHAR onequarter
ENCODING 188
SWIDTH 600 0
DWIDTH 12 0
BBX 18 20 -1 -4
BITMAP
000000
000000
000000
000000
000000
008080
038100
008200
010800
011000
07E200
008C00
011400
022400
087C00
100800
000000
000000
000000
000000
ENDCHAR
STARTCHAR onehalf
ENCODING 189
SWIDTH 600 0
DWIDTH 12 0
BBX 18 20 -1 -4
BITMAP
000000
000000
000000
000000
000000
008080
038100
008200
010800
011000
07EE00
00A200
010200
021C00
084000
107C00
000000
000000
000000
000000
ENDCHAR
STARTCHAR threequarters
ENCODING 190
SWIDTH 600 0
DWIDTH 12 0
BBX 18 20 -1 -4
BITMAP
000000
000000
000000
000000
000000
01C080
022100
00C200
004800
045000
03A200
008C00
011400
022400
087C00
100800
000000
000000
000000
000000
ENDCHAR
STARTCHAR questiondown
ENCODING 169
SWIDTH 600 0
DWIDTH 12 0
BBX 18 20 -1 -4
BITMAP
000000
000000
000000
000000
000000
00C600
000000
007C00
010400
020200
020200
07FC00
040000
040400
041000
03E000
000000
000000
000000
000000
ENDCHAR
STARTCHAR cyr-A
ENCODING 225
SWIDTH 600 0
DWIDTH 12 0
BBX 18 20 -1 -4
BITMAP
000000
000000
000000
000000
000800
001000
001000
002800
005000
008800
008800
03F800
020800
040400
080800
1C1C00
000000
000000
000000
000000
ENDCHAR
STARTCHAR cyr-Be
ENCODING 226
SWIDTH 600 0
DWIDTH 12 0
BBX 18 20 -1 -4
BITMAP
000000
000000
000000
000000
01FF80
008100
008000
008000
010000
01FC00
010200
020200
020200
020200
040800
1FF000
000000
000000
000000
000000
ENDCHAR
STARTCHAR cyr-Ve
ENCODING 247
SWIDTH 600 0
DWIDTH 12 0
BBX 18 20 -1 -4
BITMAP
000000
000000
000000
000000
01FE00
008200
008100
008100
010400
01FC00
010200
020200
020200
020200
040800
1FF000
000000
000000
000000
000000
ENDCHAR
STARTCHAR cyr-Ghe
ENCODING 231
SWIDTH 600 0
DWIDTH 12 0
BBX 18 20 -1 -4
BITMAP
000000
000000
000000
000000
01FF80
008100
008100
008000
010000
010000
010000
020000
020000
020000
040000
1F8000
000000
000000
000000
000000
ENDCHAR
STARTCHAR cyr-De
ENCODING 228
SWIDTH 600 0
DWIDTH 12 0
BBX 18 20 -1 -4
BITMAP
000000
000000
000000
000000
00FFC0
008100
008100
008100
010200
010200
010200
020400
020400
020400
080800
1FFC00
100400
200800
000000
000000
ENDCHAR
STARTCHAR cyr-Ie
ENCODING 229
SWIDTH 600 0
DWIDTH 12 0
BBX 18 20 -1 -4
BITMAP
000000
000000
000000
000000
01FF80
008100
008100
008000
010800
01F800
010800
020000
020000
020400
040800
1FF800
000000
000000
000000
000000
ENDCHAR
STARTCHAR cyr-Zhe
ENCODING 246
SWIDTH 600 0
DWIDTH 12 0
BBX 18 20 -1 -4
BITMAP
000000
000000
000000
000000
019CC0
011100
011100
009200
00A800
007000
00A800
024800
024800
044400
088800
19CC00
000000
000000
000000
000000
ENDCHAR
STARTCHAR cyr-Ze
ENCODING 250
SWIDTH 600 0
DWIDTH 12 0
BBX 18 20 -1 -4
BITMAP
000000
000000
000000
000000
00BC00
018400
010200
000200
000800
007800
000400
000400
000400
040400
0C1000
0BE000
000000
000000
000000
000000
ENDCHAR
STARTCHAR cyr-I
ENCODING 233
SWIDTH 600 0
DWIDTH 12 0
BBX 18 20 -1 -4
BITMAP
000000
000000
000000
000000
01C1C0
010100
010100
010300
020A00
021200
022200
048400
050400
060400
080800
1C1C00
000000
000000
000000
000000
ENDCHAR
STARTCHAR cyr-I-short
ENCODING 234
SWIDTH 600 0
DWIDTH 12 0
BBX 18 20 -1 -4
BITMAP
000000
000000
002200
001C00
01C1C0
010100
010100
010300
020A00
021200
022200
048400
050400
060400
080800
1C1C00
000000
000000
000000
000000
ENDCHAR
STARTCHAR cyr-Ka
ENCODING 235
SWIDTH 600 0
DWIDTH 12 0
BBX 18 20 -1 -4
BITMAP
000000
000000
000000
000000
01C780
010400
010800
011000
024000
028000
034000
044000
042000
041000
081000
1C0C00
000000
000000
000000
000000
ENDCHAR
STARTCHAR cyr-El
ENCODING 236
SWIDTH 600 0
DWIDTH 12 0
BBX 18 20 -1 -4
BITMAP
000000
000000
000000
000000
007FC0
004100
004100
004100
008200
008200
008200
010400
010400
010400
120800
0C3C00
000000
000000
000000
000000
ENDCHAR
STARTCHAR cyr-Em
ENCODING 237
SWIDTH 600 0
DWIDTH 12 0
BBX 18 20 -1 -4
BITMAP
000000
000000
000000
000000
0180C0
018300
018300
014500
028A00
025200
025200
044400
044400
040400
080800
1C1C00
000000
000000
000000
000000
ENDCHAR
STARTCHAR cyr-En
ENCODING 238
SWIDTH 600 0
DWIDTH 12 0
BBX 18 20 -1 -4
BITMAP
000000
000000
000000
000000
01C1C0
010100
010100
010100
020200
03FE00
020200
040400
040400
040400
080800
1C1C00
000000
000000
000000
000000
ENDCHAR
STARTCHAR cyr-O
ENCODING 239
SWIDTH 600 0
DWIDTH 12 0
BBX 18 20 -1 -4
BITMAP
000000
000000
000000
000000
003E00
018300
010100
020080
040100
040100
040100
080200
080200
040400
0C1800
03E000
000000
000000
000000
000000
ENDCHAR
STARTCHAR cyr-Pe
ENCODING 240
SWIDTH 600 0
DWIDTH 12 0
BBX 18 20 -1 -4
BITMAP
000000
000000
000000
000000
01FFC0
010100
010100
010100
020200
020200
020200
040400
040400
040400
080800
1C1C00
000000
000000
000000
000000
ENDCHAR
STARTCHAR cyr-Er
ENCODING 242
SWIDTH 600 0
DWIDTH 12 0
BBX 18 20 -1 -4
BITMAP
000000
000000
000000
000000
01FE00
008200
008100
008100
010200
010400
01F800
020000
020000
020000
040000
1F8000
000000
000000
000000
000000
ENDCHAR
STARTCHAR cyr-Es
ENCODING 243
SWIDTH 600 0
DWIDTH 12 0
BBX 18 20 -1 -4
BITMAP
000000
000000
000000
000000
001F40
00C180
008080
010000
020000
020000
020000
040000
040000
020200
060C00
01F000
000000
000000
000000
000000
ENDCHAR
STARTCHAR cyr-Te
ENCODING 244
SWIDTH 600 0
DWIDTH 12 0
BBX 18 20 -1 -4
BITMAP
000000
000000
000000
000000
01FFC0
021080
021080
001000
002000
002000
002000
004000
004000
004000
008000
03E000
000000
000000
000000
000000
ENDCHAR
STARTCHAR cyr-U
ENCODING 245
SWIDTH 600 0
DWIDTH 12 0
BBX 18 20 -1 -4
BITMAP
000000
000000
000000
000000
01C1C0
010100
008200
008200
008800
008800
005000
00A000
004000
004000
090000
060000
000000
000000
000000
000000
ENDCHAR
STARTCHAR cyr-Ef
ENCODING 230
SWIDTH 600 0
DWIDTH 12 0
BBX 18 20 -1 -4
BITMAP
000000
000000
001C00
000800
003E00
019300
011100
021080
042100
042100
042100
044400
064C00
01F000
008000
01C000
000000
000000
000000
000000
ENDCHAR
STARTCHAR cyr-Kha
ENCODING 232
SWIDTH 600 0
DWIDTH 12 0
BBX 18 20 -1 -4
BITMAP
000000
000000
000000
000000
01E3C0
010100
008200
004400
005000
002000
002000
00A000
011000
020800
080800
1E3C00
000000
000000
000000
000000
ENDCHAR
STARTCHAR cyr-Tse
ENCODING 227
SWIDTH 600 0
DWIDTH 12 0
BBX 18 20 -1 -4
BITMAP
000000
000000
000000
000000
01E3C0
010100
010100
010100
020200
020200
020200
040400
040400
040400
080800
1FFC00
000400
000800
000000
000000
ENDCHAR
STARTCHAR cyr-Che
ENCODING 254
SWIDTH 600 0
DWIDTH 12 0
BBX 18 20 -1 -4
BITMAP
000000
000000
000000
000000
01E780
010200
010200
010200
020400
020C00
021400
03C800
000800
000800
001000
007800
000000
000000
000000
000000
ENDCHAR
STARTCHAR cyr-Sha
ENCODING 251
SWIDTH 600 0
DWIDTH 12 0
BBX 18 20 -1 -4
BITMAP
000000
000000
000000
000000
01DDC0
011100
011100
011100
022200
022200
022200
044400
044400
044400
088800
1FFC00
000000
000000
000000
000000
ENDCHAR
STARTCHAR cyr-Shcha
ENCODING 253
SWIDTH 600 0
DWIDTH 12 0
BBX 18 20 -1 -4
BITMAP
000000
000000
000000
000000
01DDC0
011100
011100
011100
022200
022200
022200
044400
044400
044400
088800
1FFC00
000400
000800
000000
000000
ENDCHAR
STARTCHAR cyr-Ier
ENCODING 255
SWIDTH 600 0
DWIDTH 12 0
BBX 18 20 -1 -4
BITMAP
000000
000000
000000
000000
01F000
024000
024000
004000
008000
00FC00
008200
010200
010200
010200
020800
0FF000
000000
000000
000000
000000
ENDCHAR
STARTCHAR cyr-Iery
ENCODING 249
SWIDTH 600 0
DWIDTH 12 0
BBX 18 20 -1 -4
BITMAP
000000
000000
000000
000000
01C1C0
010100
010100
010100
020200
03E200
021200
041400
041400
041400
084800
1F9C00
000000
000000
000000
000000
ENDCHAR
STARTCHAR cyr-Ierik
ENCODING 248
SWIDTH 600 0
DWIDTH 12 0
BBX 18 20 -1 -4
BITMAP
000000
000000
000000
000000
00E000
008000
008000
008000
010000
01FC00
010200
020200
020200
020200
040800
0FF000
000000
000000
000000
000000
ENDCHAR
STARTCHAR cyr-E-rev
ENCODING 252
SWIDTH 600 0
DWIDTH 12 0
BBX 18 20 -1 -4
BITMAP
000000
000000
000000
000000
003E00
018300
010100
000080
000100
00FF00
000100
000200
000200
040400
0C1800
03E000
000000
000000
000000
000000
ENDCHAR
STARTCHAR cyr-Yu
ENCODING 224
SWIDTH 600 0
DWIDTH 12 0
BBX 18 20 -1 -4
BITMAP
000000
000000
000000
000000
01C700
011100
012080
012080
024100
03C100
024100
048200
048200
048200
088800
1C7000
000000
000000
000000
000000
ENDCHAR
STARTCHAR cyr-Ya
ENCODING 241
SWIDTH 600 0
DWIDTH 12 0
BBX 18 20 -1 -4
BITMAP
000000
000000
000000
000000
003F80
008200
010200
010200
020400
010400
00FC00
008800
010800
010800
041000
187800
000000
000000
000000
000000
ENDCHAR
STARTCHAR cyr-a
ENCODING 193
SWIDTH 600 0
DWIDTH 12 0
BBX 18 20 -1 -4
BITMAP
000000
000000
000000
000000
000000
000000
000000
007C00
010400
000400
007C00
030800
040800
040800
081000
07E800
000000
000000
000000
000000
ENDCHAR
STARTCHAR cyr-be
ENCODING 194
SWIDTH 600 0
DWIDTH 12 0
BBX 18 20 -1 -4
BITMAP
000000
000000
000000
000180
003E00
008000
010000
017C00
030400
020200
020200
040400
040400
040400
041000
03E000
000000
000000
000000
000000
ENDCHAR
STARTCHAR cyr-ve
ENCODING 215
SWIDTH 600 0
DWIDTH 12 0
BBX 18 20 -1 -4
BITMAP
000000
000000
000000
000000
000000
000000
000000
01FC00
010400
010400
010400
03F800
020400
020400
040800
0FF000
000000
000000
000000
000000
ENDCHAR
STARTCHAR cyr-ghe
ENCODING 199
SWIDTH 600 0
DWIDTH 12 0
BBX 18 20 -1 -4
BITMAP
000000
000000
000000
000000
000000
000000
000000
01FF00
008200
008200
008000
010000
010000
010000
020000
0F8000
000000
000000
000000
000000
ENDCHAR
STARTCHAR cyr-de
ENCODING 196
SWIDTH 600 0
DWIDTH 12 0
BBX 18 20 -1 -4
BITMAP
000000
000000
000000
000000
000000
000000
000000
01FF00
010400
010400
010400
020800
020800
020800
081000
1FF800
100800
201000
000000
000000
ENDCHAR
STARTCHAR cyr-ie
ENCODING 197
SWIDTH 600 0
DWIDTH 12 0
BBX 18 20 -1 -4
BITMAP
000000
000000
000000
000000
000000
000000
000000
007C00
010400
020200
020200
07FC00
040000
040400
041000
03E000
000000
000000
000000
000000
ENDCHAR
STARTCHAR cyr-zhe
ENCODING 214
SWIDTH 600 0
DWIDTH 12 0
BBX 18 20 -1 -4
BITMAP
000000
000000
000000
000000
000000
000000
000000
01BB00
012400
012400
00A800
00E000
015000
024800
088800
19CC00
000000
000000
000000
000000
ENDCHAR
STARTCHAR cyr-z
ENCODING 218
SWIDTH 600 0
DWIDTH 12 0
BBX 18 20 -1 -4
BITMAP
000000
000000
000000
000000
000000
000000
000000
017C00
030400
020200
000400
00F000
000800
000400
0C1000
03E000
000000
000000
000000
000000
ENDCHAR
STARTCHAR cyr-i
ENCODING 201
SWIDTH 600 0
DWIDTH 12 0
BBX 18 20 -1 -4
BITMAP
000000
000000
000000
000000
000000
000000
000000
01C700
010400
010C00
011400
024800
028800
030800
041000
0E3800
000000
000000
000000
000000
ENDCHAR
STARTCHAR cyr-i-short
ENCODING 202
SWIDTH 600 0
DWIDTH 12 0
BBX 18 20 -1 -4
BITMAP
000000
000000
000000
000000
002200
003800
000000
01C700
010400
010C00
011400
024800
028800
030800
041000
0E3800
000000
000000
000000
000000
ENDCHAR
STARTCHAR cyr-ka
ENCODING 203
SWIDTH 600 0
DWIDTH 12 0
BBX 18 20 -1 -4
BITMAP
000000
000000
000000
000000
000000
000000
000000
01C700
010800
011000
012000
02C000
032000
021000
041000
0E0C00
000000
000000
000000
000000
ENDCHAR
STARTCHAR cyr-el
ENCODING 204
SWIDTH 600 0
DWIDTH 12 0
BBX 18 20 -1 -4
BITMAP
000000
000000
000000
000000
000000
000000
000000
00FF00
008400
008400
008400
010800
010800
010800
121000
0C3800
000000
000000
000000
000000
ENDCHAR
STARTCHAR cyr-em
ENCODING 205
SWIDTH 600 0
DWIDTH 12 0
BBX 18 20 -1 -4
BITMAP
000000
000000
000000
000000
000000
000000
000000
030180
030600
028A00
025200
044400
044400
040400
080800
1C1C00
000000
000000
000000
000000
ENDCHAR
STARTCHAR cyr-en
ENCODING 206
SWIDTH 600 0
DWIDTH 12 0
BBX 18 20 -1 -4
BITMAP
000000
000000
000000
000000
000000
000000
000000
01C700
010400
010400
010400
03F800
020800
020800
041000
0E3800
000000
000000
000000
000000
ENDCHAR
STARTCHAR cyr-o
ENCODING 207
SWIDTH 600 0
DWIDTH 12 0
BBX 18 20 -1 -4
BITMAP
000000
000000
000000
000000
000000
000000
000000
007C00
010400
020200
020200
040400
040400
040400
041000
03E000
000000
000000
000000
000000
ENDCHAR
STARTCHAR cyr-pe
ENCODING 208
SWIDTH 600 0
DWIDTH 12 0
BBX 18 20 -1 -4
BITMAP
000000
000000
000000
000000
000000
000000
000000
01FF00
010400
010400
010400
020800
020800
020800
041000
0E3800
000000
000000
000000
000000
ENDCHAR
STARTCHAR cyr-er
ENCODING 210
SWIDTH 600 0
DWIDTH 12 0
BBX 18 20 -1 -4
BITMAP
000000
000000
000000
000000
000000
000000
000000
01BC00
018400
010200
010200
020400
020400
020400
061000
05E000
040000
080000
080000
1E0000
ENDCHAR
STARTCHAR cyr-es
ENCODING 211
SWIDTH 600 0
DWIDTH 12 0
BBX 18 20 -1 -4
BITMAP
000000
000000
000000
000000
000000
000000
000000
003D00
008600
010200
010000
020000
020000
020000
020800
01F000
000000
000000
000000
000000
ENDCHAR
STARTCHAR cyr-te
ENCODING 212
SWIDTH 600 0
DWIDTH 12 0
BBX 18 20 -1 -4
BITMAP
000000
000000
000000
000000
000000
000000
000000
01FF00
022200
002000
002000
004000
004000
004000
008000
03E000
000000
000000
000000
000000
ENDCHAR
STARTCHAR cyr-u
ENCODING 213
SWIDTH 600 0
DWIDTH 12 0
BBX 18 20 -1 -4
BITMAP
000000
000000
000000
000000
000000
000000
000000
038380
020200
010200
010400
010800
011000
009000
014000
00C000
008000
010000
120000
0C0000
ENDCHAR
STARTCHAR cyr-ef
ENCODING 198
SWIDTH 600 0
DWIDTH 12 0
BBX 18 20 -1 -4
BITMAP
000000
000000
000000
000000
000000
003800
001000
007C00
012400
022200
022200
044400
044400
044400
049000
03E000
008000
010000
010000
038000
ENDCHAR
STARTCHAR cyr-kha
ENCODING 200
SWIDTH 600 0
DWIDTH 12 0
BBX 18 20 -1 -4
BITMAP
000000
000000
000000
000000
000000
000000
000000
01C700
010400
008800
005000
004000
00A000
011000
041000
0E3800
000000
000000
000000
000000
ENDCHAR
STARTCHAR cyr-tse
ENCODING 195
SWIDTH 600 0
DWIDTH 12 0
BBX 18 20 -1 -4
BITMAP
000000
000000
000000
000000
000000
000000
000000
01C700
010400
010400
010400
020800
020800
020800
041000
0FFC00
000400
000800
000000
000000
ENDCHAR
STARTCHAR cyr-che
ENCODING 222
SWIDTH 600 0
DWIDTH 12 0
BBX 18 20 -1 -4
BITMAP
000000
000000
000000
000000
000000
000000
000000
01C700
010400
010400
010400
021800
01E800
000800
001000
003800
000000
000000
000000
000000
ENDCHAR
STARTCHAR cyr-sha
ENCODING 219
SWIDTH 600 0
DWIDTH 12 0
BBX 18 20 -1 -4
BITMAP
000000
000000
000000
000000
000000
000000
000000
03BB80
022200
022200
022200
044400
044400
044400
088800
1FFC00
000000
000000
000000
000000
ENDCHAR
STARTCHAR cyr-shcha
ENCODING 221
SWIDTH 600 0
DWIDTH 12 0
BBX 18 20 -1 -4
BITMAP
000000
000000
000000
000000
000000
000000
000000
03BB80
022200
022200
022200
044400
044400
044400
088800
1FFC00
000400
000800
000000
000000
ENDCHAR
STARTCHAR cyr-ier
ENCODING 223
SWIDTH 600 0
DWIDTH 12 0
BBX 18 20 -1 -4
BITMAP
000000
000000
000000
000000
000000
000000
000000
03E000
048000
048000
00FC00
010400
010200
010200
020800
0FF000
000000
000000
000000
000000
ENDCHAR
STARTCHAR cyr-iery
ENCODING 217
SWIDTH 600 0
DWIDTH 12 0
BBX 18 20 -1 -4
BITMAP
000000
000000
000000
000000
000000
000000
000000
038380
020200
020200
03E200
042400
041400
041400
084800
1F9C00
000000
000000
000000
000000
ENDCHAR
STARTCHAR cyr-ierik
ENCODING 216
SWIDTH 600 0
DWIDTH 12 0
BBX 18 20 -1 -4
BITMAP
000000
000000
000000
000000
000000
000000
000000
01C000
010000
010000
01F800
020800
020400
020400
041000
0FE000
000000
000000
000000
000000
ENDCHAR
STARTCHAR cyr-e-rev
ENCODING 220
SWIDTH 600 0
DWIDTH 12 0
BBX 18 20 -1 -4
BITMAP
000000
000000
000000
000000
000000
000000
000000
007C00
010400
020200
000200
00FC00
000400
040400
041000
03E000
000000
000000
000000
000000
ENDCHAR
STARTCHAR cyr-yu
ENCODING 192
SWIDTH 600 0
DWIDTH 12 0
BBX 18 20 -1 -4
BITMAP
000000
000000
000000
000000
000000
000000
000000
038E00
022200
024100
024100
078200
048200
048200
088800
1C7000
000000
000000
000000
000000
ENDCHAR
STARTCHAR cyr-ya
ENCODING 209
SWIDTH 600 0
DWIDTH 12 0
BBX 18 20 -1 -4
BITMAP
000000
000000
000000
000000
000000
000000
000000
00FF00
020400
020400
020400
03F800
008800
010800
041000
187800
000000
000000
000000
000000
ENDCHAR
ENDFONT
